<svg version="1.2" xmlns="http://www.w3.org/2000/svg" viewBox="0 0 1024 1024" width="100" height="100"><style>.a{fill:#1f72b5}.b{fill:#51a3dc}.c{fill:#ebebeb}.d{fill:#cecece}</style><path class="a" d="m215.3 941.8l-66-740.7h725.4l-66 740.4-297.3 82.5z"/><path class="b" d="m512 961.1l240.1-66.5 56.6-632.9h-296.7z"/><path class="c" d="m276.2 432.6l-8.8-85.6h489.2l-5.7 99.3-206.8 91.3h198.3l-21.3 281.6-200 53.8-207.4-50.4-12.8-142.8h91.6l5.2 75.4 120 22.5 110.9-34.2 5.1-120.6h-340.7l-6.3-89.6 225.3-98.7z"/><path class="d" d="m286.7 533.3l6.3 89.6h219v-188.3z"/><path class="d" d="m397.7 755.2l-5.2-75.4h-91.6l12.8 142.8 198.3 48.1v-94.2z"/><path class="d" d="m267.4 347l8.8 85.6 235.8 2v-87.6z"/><path  d="m580.3 34.1v-34.1h-136.6v79.6h93.9v25.6h-96.7v31.3h136.5v-82.5h-96.7v-19.9z"/><path  d="m332.8 80.5v24.7h96.7v31.3h-136.5v-81.6-54.9h133.7v34.1h-93.9z"/><path  d="m731 34.1v-34.1h-136.5v79.6h93.9v25.6h-96.8v31.3h136.6v-82.5h-96.7v-19.9z"/></svg>