<svg version="1.2" xmlns="http://www.w3.org/2000/svg" viewBox="0 0 1024 1024" width="100" height="100"><style>.a{fill:#f7df1e}</style><path class="a" d="m0 0h1024v1024h-1024z"/><path  d="m269.3 855.7l78.3-47.4c15.1 26.9 28.9 49.3 61.7 49.3 31.7 0 51.6-12.3 51.6-60.6v-326.8h96.3v328.5c0 99.6-58.4 145.1-143.7 145.1-76.8 0-121.4-39.9-144.2-88.1z"/><path  d="m609.6 845.3l78.3-45.5c20.8 33.7 47.4 58.4 94.8 58.4 39.9 0 65.4-19.9 65.4-47.4 0-33.1-26.1-44.6-70.1-64l-24.2-10.4c-69.3-29.4-115.6-66.7-115.6-145 0-72.1 55-127.1 140.9-127.1 61.1 0 105.2 21.3 136.9 76.9l-74.9 48c-16.6-29.5-34.2-41.3-61.7-41.3-28.1 0-46 18-46 41.3 0 28.8 17.9 40.6 59.1 58.3l24.2 10.4c81.9 35.1 127.9 70.7 127.9 151.2 0 86.7-68.2 134.1-159.3 134.1-89.8 0.6-147.6-42.1-175.7-97.9z"/></svg>