<svg version="1.2" xmlns="http://www.w3.org/2000/svg" viewBox="0 0 1024 1024" width="100" height="100"><style>.a{fill:#00d8ff}</style><path fill-rule="evenodd" class="a" d="m1023.2 510.9c0 64.2-76.6 127.1-193.9 166.1-6.1 1.9-12.6 3.9-19 5.8 2.2 9.6 4.5 18.6 6.1 27.5 23 117.3 5.4 213.5-49.6 245.2-53 30.9-139.2 0.6-226.1-74.3q-13.9-11.8-27.8-25.3c-7 6.8-14.3 13.5-21.3 19.7-89.8 78.5-182.1 111.1-237.1 79.4-53.3-30.9-69.9-120.4-48.5-233.2 2.2-11.7 5-24.1 8.1-36.4-9.5-2.8-18.8-5.6-27.8-8.7-112.8-38.7-187.1-102.4-187.1-165.8 0-61.5 69.3-120.7 177.6-158.5q18.1-6.4 37.9-11.8c-2.8-11.5-5.4-22.7-7.6-34-22.5-114.7-6.5-206.5 46.8-237.3 55.6-32.3 148.2 2.2 240.7 84.4 5.7 5.1 11.3 10.4 16.9 15.7 8.4-8.1 17.1-16 25.5-23.2 88.1-76.6 175.6-108.9 228.9-78 55.9 31.9 72.1 129.6 47.2 250.8-1.4 7.3-3.1 14.8-5.1 22.4 11.2 3.4 22.2 6.7 32.8 10.4 110.6 38.2 182.1 97.6 182.4 159.1zm-43.8 0.2c0-37.3-57.8-85.5-152.6-118.1-9.8-3.3-20.2-6.4-30.6-9.5-12.6 41-29.4 83.9-49.9 127.9 21.3 44.9 39 88.7 51.9 129.6 5.9-1.6 11.5-3.3 17.1-5.3 101.6-33.7 163.9-85 164.1-124.6zm-211.8 183.5c-42.3 9.8-89.2 16.9-138.6 21.3-28 40.7-56.9 77.5-85.8 108.9 8.7 8.4 17.4 16.3 25.8 23.6 74.3 63.9 143.4 88.3 175.6 69.5 15.4-8.9 27.5-30.8 33.7-63.6 6.7-36.8 5.3-83.4-5.1-135.3-1.4-8.1-3.3-16.2-5.6-24.4zm-305.2 148.2c6.7-5.7 13.2-11.8 19.6-18-29.7-32-59.5-68.7-87.8-108.6-49.6-3.9-95.9-10.6-138-19.9-3.1 11.5-5.6 23-7.6 34-18.2 96.5-4.8 168.6 27.5 187.1 15.2 8.7 40.4 8.4 71.8-2.8 35.1-12.4 74.9-37.1 114.5-71.8zm-236.5-199.5c12.9-42.4 30-86.7 50.5-131.3-20.2-44.1-37.1-87.5-50-129.3-12.3 3.6-24.1 7.3-35.3 11.2-92.9 32.5-148.4 79.9-148.4 117.2 0 17.7 12.6 39 38.1 60.9 28.4 24.2 69.6 46.3 119.6 63.4 8.1 2.8 16.5 5.4 25.5 7.9zm31.1-312.8c42.4-9.8 88.4-16.9 136.7-21.3 28-39.6 57.5-76.1 87.2-108.1-5.3-5-10.4-9.8-15.4-14.3-80-70.9-155.7-99.3-190-79.4-32.2 18.6-45.1 92.6-25.8 191.1 2.3 10.1 4.5 20.8 7.3 32zm464 129.9c13-30.3 24.2-59.8 32.9-88.1-29.5-6.8-60.9-12.1-93.4-16.3q15.9 25.3 31.1 51.3c10.4 18 20.2 36 29.4 53.1zm-270.4-155.7c19.9-0.9 40.1-1.4 60.3-1.4 20.5 0 41 0.5 60.9 1.4-19.9-26.4-40.1-50.8-60.3-72.7-20.5 22.2-41 46.6-60.9 72.7zm-88.9 51.6c-32.6 4.2-63.7 9.5-92.9 16 9 28.6 19.9 58.3 32.6 88.6 9.2-17.6 18.7-35.3 28.8-53 10.1-17.7 20.5-35.1 31.5-51.6zm-31.5 260.3c-10.1-17.6-19.6-35.3-28.8-53-13 30.9-24.2 61.2-33.2 90.3q43.8 9.7 94.3 15.2c-11.2-17.1-21.9-34.5-32.3-52.5zm242.4 102.7c-20.2 0.9-40.9 1.4-61.7 1.4-20.5 0-40.4-0.3-60-1.1 20.2 26.6 40.9 51.3 61.7 73.8 19.9-22.2 40.1-46.9 60-74.1zm119.3-103.2c-10.4 17.9-20.8 35.3-31.4 52.2 33.6-4 65.6-9.6 95.3-16.3-9.2-28.6-20.7-58.9-34.5-90.1-9.2 18.3-19 36.2-29.4 54.2zm5.9-103.8c-13.2-27-28.1-54.5-44.1-82.2-16-27.5-32.5-53.9-49.4-78.9-30.5-2.5-61.7-3.6-93.4-3.6-31.4 0-62.5 1.1-93.1 3.4-17.1 25.2-34 51.6-49.7 79.1-15.7 27.2-30.3 55-43.5 82.5q19.8 41.2 43.8 82.4c15.7 27.5 32.5 54.2 49.9 79.4 29.8 1.7 60.6 2.8 92.6 2.8 32 0 63.4-1.1 93.7-3.3 16.6-25.3 33.1-51.7 49.1-79.4 16-27.8 30.9-55.6 44.1-82.2zm-132.2-332.8c-7.8 6.8-15.7 14.1-23.5 21.6 29.4 31.5 58.6 67.9 86.6 108.1 48.3 4.4 94.6 11.7 137 21.6 1.6-7.1 3-13.8 4.4-20.5 21.6-104.7 8.2-184.6-26-204.3-32.3-18.5-103 7.3-178.5 73.5zm-54.7 240.2c50.5 0 91.5 40.9 91.5 91.4 0 50.5-41 91.5-91.5 91.5-50.5 0-91.4-41-91.4-91.5 0-50.5 40.9-91.4 91.4-91.4z"/></svg>