<svg version="1.2" xmlns="http://www.w3.org/2000/svg" viewBox="0 0 1024 1024" width="100" height="100"><style>.a{fill:#764abc}</style><path class="a" d="m708.5 704.7c37.9-3.9 66.5-36.4 65.1-75.4-1.4-39-34-70.4-73-70.4h-2.5c-40.4 1.4-71.5 35-70.4 75.4 1.4 19.7 9.3 36.5 20.8 48.3-44.4 87.2-112 151.2-213.8 204.5-69 36.5-140.8 49.6-212.4 40.4-58.6-7.9-104.4-34-133-76.9-41.8-63.9-45.7-133-10.3-202 24.6-49.6 63.9-86.1 88.6-104.3-5.3-16.9-12.9-45.8-16.8-66.5-188.8 136.9-169.5 321.8-112 409.3 43 65.1 130.2 105.5 226.7 105.5 26.1 0 52.2-2.5 78.3-9.3 166.6-32.2 293.2-131.3 364.7-278.6zm229.5-161.6c-99-115.8-244.9-179.8-411.9-179.8h-20.7c-11.8-23.6-36.5-39-64-39h-2.5c-40.4 1.4-71.5 35.1-70.4 75.5 1.4 39 33.9 70.4 72.9 70.4h2.5c28.7-1.4 53.3-19.6 64-44.3h23.6c99 0 192.7 28.6 277.4 84.7 65.1 42.9 112 99 138.1 166.9 22.1 54.7 20.7 108.3-2.6 153.8-36.4 69-97.6 106.8-178.4 106.8-52.2 0-101.5-15.7-127.6-27.4-14.3 12.9-40.4 33.9-58.7 46.8 56.1 26.1 113.4 40.4 168.1 40.4 125.1 0 217.7-69 252.7-138 37.6-75.5 35.1-205.9-62.5-316.8zm-662.1 183.8c1.4 39 33.9 70.4 72.9 70.4h2.6c40.4-1.4 71.5-35.1 70.4-75.5-1.4-38.9-34-70.4-73-70.4h-2.5c-2.5 0-6.4 0-9.2 1.4-53.3-88.6-75.5-185.1-67.9-289.2 5.3-78.3 31.1-145.9 76.8-202 37.9-48.3 110.8-71.5 160.2-72.9 138.1-2.6 196.7 169.4 200.6 238.4 16.8 3.9 45.7 12.9 65.1 19.7-15.7-211-145.9-320.7-271-320.7-117.3 0-225.6 84.7-268.5 209.8-60 167-20.7 327.2 52.2 453.4-6.2 9-10.1 23.3-8.7 37.6z"/></svg>